<?xml version="1.0" encoding="UTF-8"?>
<!DOCTYPE svg PUBLIC "-//W3C//DTD SVG 1.1//EN" "http://www.w3.org/Graphics/SVG/1.1/DTD/svg11.dtd">
<!-- Creator: CorelDRAW X7 -->
<svg xmlns="http://www.w3.org/2000/svg" xml:space="preserve" width="66.9805mm" height="6.651mm" version="1.1" style="shape-rendering:geometricPrecision; text-rendering:geometricPrecision; image-rendering:optimizeQuality; fill-rule:evenodd; clip-rule:evenodd"
viewBox="0 0 3028 301"
 xmlns:xlink="http://www.w3.org/1999/xlink">
 <defs>
  <style type="text/css">
   <![CDATA[
    .fil0 {fill:#393185;fill-rule:nonzero}
   ]]>
  </style>
 </defs>
 <g id="Слой_x0020_1">
  <metadata id="CorelCorpID_0Corel-Layer"/>
  <path class="fil0" d="M31 274l-31 0 0 -234 98 0 0 234 -32 0 0 -200 -35 0 0 200zm118 -54c0,9 1,15 4,18 3,4 7,5 12,5 5,0 9,-1 12,-5 3,-3 4,-9 4,-18l0 -126c0,-8 -1,-14 -4,-18 -3,-3 -7,-5 -12,-5 -5,0 -9,2 -12,5 -3,4 -4,10 -4,18l0 126zm-31 -124c0,-18 4,-33 12,-43 8,-10 20,-15 35,-15 15,0 27,5 35,15 8,10 12,25 12,43l0 122c0,19 -4,33 -12,43 -8,11 -20,16 -35,16 -15,0 -27,-5 -35,-16 -8,-10 -12,-24 -12,-43l0 -122zm145 178l-31 0 0 -234 82 0 0 34 -51 0 0 200zm93 -54c0,9 2,15 5,18 3,4 7,5 11,5 5,0 9,-1 12,-5 3,-3 5,-9 5,-18l0 -126c0,-8 -2,-14 -5,-18 -3,-3 -7,-5 -12,-5 -4,0 -8,2 -11,5 -3,4 -5,10 -5,18l0 126zm-31 -124c0,-18 4,-33 12,-43 8,-10 20,-15 35,-15 16,0 27,5 35,15 9,10 13,25 13,43l0 122c0,19 -4,33 -13,43 -8,11 -19,16 -35,16 -15,0 -27,-5 -35,-16 -8,-10 -12,-24 -12,-43l0 -122zm160 -56c16,0 27,5 35,15 8,10 11,24 11,43l0 30c0,19 -3,34 -11,44 -8,9 -19,14 -35,14l-15 0 0 88 -31 0 0 -234 46 0zm-15 34l0 79 15 0c5,0 9,-2 11,-5 3,-3 4,-9 4,-17l0 -35c0,-9 -1,-14 -4,-18 -2,-3 -6,-4 -11,-4l-15 0zm75 -34l32 0 0 234 -32 0 0 -234zm141 34l-36 0 0 142c0,12 -1,21 -3,29 -3,8 -6,13 -10,18 -4,4 -9,7 -15,9 -5,2 -11,3 -16,3 -3,0 -6,0 -8,0 -2,0 -5,-1 -7,-1l0 -33c1,0 3,0 5,0 2,0 4,0 5,0 5,0 9,-1 13,-4 3,-3 5,-9 5,-18l0 -179 98 0 0 234 -31 0 0 -200zm54 -34l31 0 0 234 -31 0 0 -234zm101 0c16,0 27,5 35,14 7,9 11,22 11,40l0 8c0,12 -2,22 -5,30 -3,8 -9,14 -15,18 8,3 14,9 17,18 4,9 6,19 6,32l0 19c0,18 -4,31 -12,41 -8,9 -20,14 -35,14l-49 0 0 -234 47 0zm-16 129l0 72 18 0c5,0 9,-2 12,-5 2,-4 4,-10 4,-18l0 -21c0,-11 -2,-18 -5,-22 -3,-4 -8,-6 -15,-6l-14 0zm0 -95l0 61 12 0c6,0 10,-1 14,-5 3,-3 4,-10 4,-19l0 -13c0,-9 -1,-15 -3,-19 -3,-3 -7,-5 -12,-5l-15 0zm173 113l0 31c0,19 -4,33 -12,43 -8,11 -19,16 -35,16 -15,0 -26,-5 -34,-16 -8,-10 -12,-24 -12,-43l0 -122c0,-18 4,-33 12,-43 8,-10 19,-15 34,-15 16,0 27,5 35,15 8,10 12,25 12,43l0 23 -30 0 0 -25c0,-8 -1,-14 -4,-18 -3,-3 -7,-5 -12,-5 -5,0 -8,2 -11,5 -3,4 -5,10 -5,18l0 126c0,9 2,15 5,18 3,3 6,5 11,5 5,0 9,-2 12,-5 3,-3 4,-9 4,-18l0 -33 30 0zm65 54c5,0 9,-2 12,-5 2,-3 4,-9 4,-17l0 -35c0,-9 -2,-15 -4,-18 -3,-3 -7,-4 -12,-4l-14 0 0 79 14 0zm-45 33l0 -234 31 0 0 88 14 0c16,0 28,5 35,15 8,10 12,24 12,43l0 30c0,19 -4,34 -12,43 -7,10 -19,15 -35,15l-45 0zm146 -93l-9 21 0 72 -31 0 0 -234 31 0 0 102 41 -102 30 0 -43 105 43 129 -31 0 -31 -93zm109 93l-32 0 0 -234 27 0 0 140 32 -140 39 0 0 234 -28 0 0 -169 -38 169zm121 0l-32 0 0 -234 27 0 0 140 32 -140 39 0 0 234 -28 0 0 -169 -38 169zm52 -274l0 27 -69 0 0 -27 69 0zm112 274l-31 0 0 -234 98 0 0 234 -32 0 0 -200 -35 0 0 200zm89 -234l31 0 0 234 -31 0 0 -234zm54 0l31 0 0 201 25 0 0 -201 31 0 0 201 25 0 0 -201 32 0 0 201 16 0 0 60 -32 0 0 -27 -128 0 0 -234zm271 234l-31 0 -6 -42 -38 0 -5 42 -29 0 32 -234 46 0 31 234zm-71 -74l30 0 -15 -118 -15 118zm116 74l-31 0 0 -234 31 0 0 101 36 0 0 -101 31 0 0 234 -31 0 0 -100 -36 0 0 100zm122 0l-32 0 0 -234 28 0 0 140 31 -140 39 0 0 234 -28 0 0 -169 -38 169zm121 0l-32 0 0 -234 28 0 0 140 32 -140 38 0 0 234 -27 0 0 -169 -39 169zm52 -274l0 27 -69 0 0 -27 69 0zm165 181l-9 21 0 72 -31 0 0 -234 31 0 0 102 41 -102 30 0 -43 105 43 129 -32 0 -30 -93zm177 93l-32 0 -5 -42 -38 0 -5 42 -29 0 32 -234 45 0 32 234zm-71 -74l30 0 -15 -118 -15 118zm131 -160c15,0 27,5 34,15 8,10 12,24 12,43l0 30c0,19 -4,34 -12,44 -7,9 -19,14 -34,14l-15 0 0 88 -31 0 0 -234 46 0zm-15 34l0 79 15 0c4,0 8,-2 11,-5 3,-3 4,-9 4,-17l0 -35c0,-9 -1,-14 -4,-18 -3,-3 -7,-4 -11,-4l-15 0zm75 2l0 -36 30 0 0 32 -14 37 -12 0 8 -33 -12 0zm81 63l42 0 0 33 -42 0 0 48c0,9 1,15 4,18 3,3 7,5 12,5 5,0 9,-2 12,-5 2,-3 4,-9 4,-18l0 -33 29 0 0 31c0,19 -4,33 -11,43 -8,11 -20,16 -35,16 -15,0 -27,-5 -35,-16 -7,-10 -11,-24 -11,-43l0 -122c0,-18 4,-33 11,-43 8,-10 20,-15 35,-15 15,0 27,5 35,15 7,10 11,25 11,43l0 23 -29 0 0 -25c0,-8 -2,-14 -4,-18 -3,-3 -7,-5 -12,-5 -5,0 -9,2 -12,5 -3,4 -4,10 -4,18l0 45zm127 -99c15,0 27,5 35,15 7,10 11,24 11,43l0 30c0,19 -4,34 -11,44 -8,9 -20,14 -35,14l-15 0 0 88 -31 0 0 -234 46 0zm-15 34l0 79 15 0c5,0 8,-2 11,-5 3,-3 4,-9 4,-17l0 -35c0,-9 -1,-14 -4,-18 -3,-3 -6,-4 -11,-4l-15 0z"/>
 </g>
</svg>
