<?xml version="1.0" encoding="UTF-8"?>
<!DOCTYPE svg PUBLIC "-//W3C//DTD SVG 1.1//EN" "http://www.w3.org/Graphics/SVG/1.1/DTD/svg11.dtd">
<!-- Creator: CorelDRAW X7 -->
<svg xmlns="http://www.w3.org/2000/svg" xml:space="preserve" width="67.1408mm" height="4.8276mm" version="1.1" style="shape-rendering:geometricPrecision; text-rendering:geometricPrecision; image-rendering:optimizeQuality; fill-rule:evenodd; clip-rule:evenodd"
viewBox="0 0 6714 483"
 xmlns:xlink="http://www.w3.org/1999/xlink">
 <defs>
  <style type="text/css">
   <![CDATA[
    .fil0 {fill:#393185;fill-rule:nonzero}
   ]]>
  </style>
 </defs>
 <g id="Слой_x0020_1">
  <metadata id="CorelCorpID_0Corel-Layer"/>
  <path class="fil0" d="M115 308l0 -126c0,-69 20,-87 91,-87l146 0c69,0 93,16 93,84l0 129c0,64 -18,80 -91,80l-150 0c-69,0 -89,-18 -89,-80l0 0zm443 11l0 -148c0,-136 -53,-171 -173,-171l-210 0c-128,0 -175,40 -175,171l0 148c0,117 49,164 175,164l210 0c133,0 173,-45 173,-164zm383 73l-119 0c-49,0 -82,0 -82,-44l-109 0c0,93 49,135 173,135l166 0c131,0 177,-42 177,-138l0 -212c0,-93 -60,-133 -177,-133l-166 0c-144,0 -177,35 -177,173 0,108 68,137 195,137l88 0c84,0 106,-24 124,-44l0 64c0,51 -24,62 -93,62l0 0zm-199 -241c0,-40 15,-60 86,-60l118 0c70,0 88,18 88,60 0,42 -15,68 -86,68l-120 0c-73,0 -86,-22 -86,-68zm478 -147l0 96 374 0 -303 383 142 0 314 -399 0 -80 -527 0zm1349 160c0,-122 -40,-160 -175,-160l-171 0c-155,0 -172,78 -172,178l115 0c0,-69 4,-87 115,-87l80 0c75,0 93,16 93,60 0,42 -16,60 -78,64l-151 7c-148,9 -174,73 -174,148l0 109 516 0 0 -91 -401 0 0 -24c0,-31 13,-42 82,-47l148 -9c102,-4 173,-48 173,-148zm148 44l126 -99 36 0 0 374 115 0 0 -479 -191 0 -146 116 60 88zm1234 -204l-204 0 -266 215 0 162 357 0 0 102 112 0 0 -102 67 0 0 -95 -67 0 0 -282 1 0zm-113 282l-242 0 0 -16 215 -170 27 0 0 186zm301 -78l128 -99 33 0 0 374 116 0 0 -479 -189 0 -148 116 60 88 0 0zm872 100l0 -126c0,-69 20,-87 91,-87l146 0c69,0 93,16 93,84l0 129c0,64 -18,80 -91,80l-150 0c-69,0 -89,-18 -89,-80l0 0zm443 11l0 -148c0,-136 -53,-171 -173,-171l-208 0c-130,0 -177,40 -177,171l0 148c0,117 49,164 177,164l208 0c135,0 173,-45 173,-164zm186 -11l0 -126c0,-69 20,-87 91,-87l148 0c69,0 91,16 91,84l0 129c0,64 -15,80 -89,80l-152 0c-69,0 -89,-18 -89,-80l0 0zm445 11l0 -148c0,-136 -55,-171 -173,-171l-210 0c-131,0 -175,40 -175,171l0 148c0,117 47,164 175,164l210 0c133,0 173,-45 173,-164zm186 -11l0 -126c0,-69 20,-87 91,-87l146 0c69,0 93,16 93,84l0 129c0,64 -18,80 -91,80l-150 0c-69,0 -89,-18 -89,-80l0 0zm443 11l0 -148c0,-136 -53,-171 -173,-171l-210 0c-128,0 -175,40 -175,171l0 148c0,117 49,164 175,164l210 0c133,0 173,-45 173,-164z"/>
 </g>
</svg>
